<?xml version="1.0" encoding="utf-8"?>
<!-- Generator: Adobe Illustrator 26.2.1, SVG Export Plug-In . SVG Version: 6.00 Build 0)  -->
<svg version="1.1" id="Calque_1" xmlns="http://www.w3.org/2000/svg" xmlns:xlink="http://www.w3.org/1999/xlink" x="0px" y="0px"
	 viewBox="0 0 305 137" style="enable-background:new 0 0 305 137;" xml:space="preserve">
<path d="M27.5,89.1V53h8.1v35.9h-8.1V89.1z"/>
<path d="M45.5,34.3h143v6.5h-143V34.3z"/>
<path d="M98.2,103.9c-5,0-9.8-1-12.7-1.9l1.2-6.9c3.1,0.8,7.5,1.3,10,1.3c5.4,0,9-1,9-7.3c0.2-0.2,0-1.7,0-1.9
	c-1.7,1.3-4,2.3-6.3,2.3C91.7,89.5,83,87.4,83,71c0-12.3,7.9-18.8,17.5-18.8c3.8,0,7.9,0.6,13.3,1.3v36.3
	C113.8,100.3,105.3,103.9,98.2,103.9z M105.7,60.1c-1.3-0.2-2.9-0.4-5.2-0.4c-6.7,0-9.4,5-9.4,11.7c0,8.6,3.5,11.5,8.6,11.5
	c2.3,0,4.4-1,6-1.7V60.1z"/>
<path d="M129.1,73.5c0,7.9,4.6,9,10.6,9c2.3,0,6.3-0.4,9-1l1.2,6.7c-2.7,1-7.7,1.3-11.7,1.3c-10.6,0-17.1-3.8-17.1-18.1
	c0-14.6,6.9-19.4,16.3-19.4c9.6,0,13.6,6.9,13.6,18.1v3.1h-21.9V73.5z M136.8,58.7c-3.5,0-6.9,2.5-7.3,8.6H143
	C142.8,61.8,140.1,58.7,136.8,58.7z"/>
<path d="M198.5,89.1V53h8.1v35.9h-8.1V89.1z"/>
<path d="M239.4,60.9c-2.1-1-4.2-1.5-7.7-1.5c-5.2,0-9,3.1-9,11.5c0,8.1,2.1,11.7,10.8,11.7c2.7,0,4.6-0.6,6.7-0.8l1.2,6.7
	c-2.7,0.6-4.8,1.2-8.5,1.2c-13.4,0-18.6-5.4-18.6-18.8c0-11.3,6.7-18.6,17.3-18.6c4.8,0,7.9,1,10,2.3L239.4,60.9z"/>
<path d="M261.9,89.9c-10.4,0-16.1-6.9-16.1-18.4c0-12.1,6.7-19.2,16.5-19.2c11.1,0,16.3,6.9,16.3,18.8
	C278.8,83.5,271.7,89.9,261.9,89.9z M262.3,59.1c-6.5,0-8.3,5.8-8.3,12.1c0,6.7,2.1,11.7,8.5,11.7c6.5,0,8.1-5.2,8.1-11.7
	C270.5,64.9,269,59.1,262.3,59.1z"/>
<path d="M36.1,37.6c0,2.5-2.1,4.6-4.6,4.6s-4.6-2.1-4.6-4.6c0-2.5,2.1-4.6,4.6-4.6S36.1,34.9,36.1,37.6z"/>
<path d="M207.1,37.6c0,2.5-2.1,4.6-4.6,4.6s-4.6-2.1-4.6-4.6c0-2.5,2.1-4.6,4.6-4.6C205.2,33,207.1,34.9,207.1,37.6z"/>
<path d="M64.9,52c-5,0-9,3.1-11.1,4.8L53.6,57c-0.8-2.9-2.9-3.7-4.8-4h-3.1v35.9h8.1V62.8c1.5-1,5.2-3.1,8.6-3.1
	c4.6,0,5.4,2.3,5.4,7.5v21.9h8.1V66.2C75.7,58.7,75.1,52,64.9,52z"/>
<path d="M177.5,52c-5,0-9,3.1-11.1,4.8l-0.2,0.2c-1-2.9-2.9-3.7-4.8-4h-3.1v35.9h8.1V62.8c1.5-1,5.2-3.1,8.6-3.1
	c4.6,0,5.4,2.3,5.4,7.5v21.9h8.1V66.2C188.5,58.7,187.7,52,177.5,52z"/>
</svg>
